<svg id="Icon_feather-instagram" data-name="Icon feather-instagram" xmlns="http://www.w3.org/2000/svg" width="39.691" height="37.637" viewBox="0 0 39.691 37.637">
  <path id="Path_6" data-name="Path 6" d="M11.14,1.5H26.895a9.651,9.651,0,0,1,9.64,9.64V26.895a9.651,9.651,0,0,1-9.64,9.64H11.14a9.651,9.651,0,0,1-9.64-9.64V11.14A9.651,9.651,0,0,1,11.14,1.5ZM26.895,33.01a6.122,6.122,0,0,0,6.115-6.115V11.14a6.122,6.122,0,0,0-6.115-6.115H11.14A6.122,6.122,0,0,0,5.025,11.14V26.895A6.122,6.122,0,0,0,11.14,33.01Z" transform="translate(3.157 1.103)" fill="#fff"/>
  <path id="Path_7" data-name="Path 7" d="M18.627,10.435a8.107,8.107,0,0,1,1.185.088A8.064,8.064,0,0,1,22.255,25.7a8.1,8.1,0,0,1-3.624.861,8.064,8.064,0,0,1,0-16.129Zm0,12.6a4.54,4.54,0,1,0-3.212-1.33A4.512,4.512,0,0,0,18.631,23.039Z" transform="translate(3.613 1.552)" fill="#fff"/>
  <path id="Path_8" data-name="Path 8" transform="translate(0 0)" fill="#fff"/>
</svg>
